<svg width="174" height="38" viewBox="0 0 174 38" fill="none" xmlns="http://www.w3.org/2000/svg">
<path d="M3.88852 37.9214C3.22664 37.9214 2.56477 37.8821 1.90289 37.8035C1.24102 37.7249 0.60672 37.5677 0 37.332V31.9483C0.413672 32.0793 0.813556 32.171 1.19965 32.2234C1.55817 32.2758 1.94426 32.302 2.35793 32.302C3.1577 32.302 3.81958 32.0793 4.34356 31.6339C4.89512 31.2148 5.17091 30.4419 5.17091 29.3154V9.11686H12.5343V29.5512C12.5343 32.302 11.8448 34.3847 10.4659 35.7994C9.11458 37.2141 6.92212 37.9214 3.88852 37.9214ZM4.96407 6.28749V0H12.6997V6.28749H4.96407Z" fill="#232323"/>
<path d="M17.1296 29.0796V0.157185H24.493V17.1727H24.5757L31.6081 9.11686H40.2952L30.7808 19.8056V17.4085L40.6676 29.0796H31.7736L24.5757 20.7094H24.493V29.0796H17.1296Z" fill="#232323"/>
<path d="M41.7722 37.5677V14.5398C41.7722 13.6491 41.7446 12.7453 41.6895 11.8283C41.6343 10.9114 41.5516 10.0076 41.4412 9.11686H48.5564L49.0115 12.6536H48.5978C48.9839 11.4747 49.8388 10.5184 51.1626 9.7849C52.4863 9.05136 53.9617 8.68459 55.5888 8.68459C57.409 8.68459 59.0085 9.10376 60.3875 9.94209C61.7664 10.7542 62.8419 11.9462 63.6141 13.5181C64.4139 15.0638 64.8137 16.9238 64.8137 19.0982C64.8137 21.2465 64.4139 23.1065 63.6141 24.6784C62.8419 26.2503 61.7664 27.4554 60.3875 28.2937C59.0085 29.1058 57.409 29.5119 55.5888 29.5119C53.9893 29.5119 52.5415 29.1713 51.2453 28.4902C49.9491 27.7828 49.0942 26.8528 48.6805 25.7001H49.1356V37.5677H41.7722ZM53.2309 24.3247C54.4995 24.3247 55.5061 23.9186 56.2507 23.1065C57.0229 22.2682 57.409 20.9321 57.409 19.0982C57.409 17.2644 57.0229 15.9414 56.2507 15.1293C55.5061 14.2909 54.4995 13.8718 53.2309 13.8718C51.9899 13.8718 50.9833 14.2909 50.2111 15.1293C49.4389 15.9414 49.0528 17.2644 49.0528 19.0982C49.0528 20.9321 49.4389 22.2682 50.2111 23.1065C50.9833 23.9186 51.9899 24.3247 53.2309 24.3247Z" fill="#232323"/>
<path d="M78.6947 37.8821C76.5988 37.8821 74.751 37.6987 73.1515 37.332C71.5796 36.9914 70.1593 36.4543 68.8907 35.7208L70.1731 30.7694C70.9177 31.1886 71.7312 31.5422 72.6137 31.8304C73.4962 32.1186 74.4063 32.3282 75.344 32.4592C76.3092 32.6163 77.2193 32.6949 78.0742 32.6949C79.8392 32.6949 81.1492 32.302 82.0041 31.516C82.859 30.7563 83.2865 29.6691 83.2865 28.2544V24.757H83.7001C83.2589 25.9097 82.3902 26.8397 81.094 27.5471C79.7978 28.2282 78.3638 28.5688 76.7918 28.5688C74.9165 28.5688 73.2756 28.1758 71.8691 27.3899C70.4902 26.5777 69.4009 25.425 68.6011 23.9317C67.8289 22.4385 67.4428 20.6701 67.4428 18.6267C67.4428 16.5832 67.8289 14.8149 68.6011 13.3216C69.4009 11.8283 70.4902 10.6887 71.8691 9.90279C73.2756 9.09066 74.9165 8.68459 76.7918 8.68459C78.4189 8.68459 79.853 9.02516 81.094 9.70631C82.335 10.3875 83.1762 11.2913 83.6174 12.4178L83.2865 12.3392L83.7415 9.11686H90.8153C90.705 10.0076 90.6223 10.9114 90.5671 11.8283C90.512 12.7453 90.4844 13.6491 90.4844 14.5398V27.4685C90.4844 30.8218 89.4778 33.3892 87.4646 35.1706C85.4514 36.9783 82.5281 37.8821 78.6947 37.8821ZM79.067 23.3816C80.3356 23.3816 81.3422 22.9755 82.0868 22.1634C82.8314 21.3513 83.2037 20.1724 83.2037 18.6267C83.2037 17.0548 82.8314 15.8759 82.0868 15.09C81.3422 14.2778 80.3356 13.8718 79.067 13.8718C77.7708 13.8718 76.7505 14.2778 76.0058 15.09C75.2612 15.8759 74.8889 17.0548 74.8889 18.6267C74.8889 20.1724 75.2612 21.3513 76.0058 22.1634C76.7505 22.9755 77.7708 23.3816 79.067 23.3816Z" fill="#232323"/>
<path d="M105.648 29.5119C103.331 29.5119 101.304 29.0927 99.5667 28.2544C97.8293 27.4161 96.478 26.2241 95.5128 24.6784C94.5475 23.1065 94.0649 21.2334 94.0649 19.0589C94.0649 16.8845 94.5475 15.0245 95.5128 13.4788C96.478 11.9331 97.8293 10.7542 99.5667 9.94209C101.304 9.10376 103.331 8.68459 105.648 8.68459C107.082 8.68459 108.488 8.86798 109.867 9.23475C111.246 9.60152 112.363 10.1255 113.218 10.8066L111.15 15.5615C110.488 15.0376 109.729 14.6446 108.874 14.3826C108.047 14.0945 107.233 13.9504 106.434 13.9504C104.917 13.9504 103.731 14.3826 102.876 15.2472C102.049 16.1117 101.635 17.3823 101.635 19.0589C101.635 20.7356 102.049 22.0193 102.876 22.91C103.731 23.7746 104.917 24.2068 106.434 24.2068C107.206 24.2068 108.019 24.0758 108.874 23.8139C109.729 23.5257 110.488 23.1327 111.15 22.635L113.218 27.3899C112.335 28.0448 111.205 28.5688 109.826 28.9617C108.474 29.3285 107.082 29.5119 105.648 29.5119Z" fill="#232323"/>
<path d="M116.266 29.0796V9.11686H123.629V29.0796H116.266ZM116.1 6.28749V0H123.836V6.28749H116.1Z" fill="#232323"/>
<path d="M138.938 29.5119C135.96 29.5119 133.712 28.8438 132.195 27.5078C130.706 26.1455 129.962 24.0889 129.962 21.3382V14.2647H126.032V9.11686H129.962V4.40124L137.325 2.75078V9.11686H142.455V14.2647H137.325V21.0631C137.325 22.2158 137.601 22.9886 138.152 23.3816C138.704 23.7484 139.366 23.9317 140.138 23.9317C140.607 23.9317 141.007 23.9056 141.338 23.8532C141.696 23.7746 142.068 23.6698 142.455 23.5388V28.9224C141.848 29.1582 141.241 29.3154 140.634 29.394C140.055 29.4726 139.49 29.5119 138.938 29.5119Z" fill="#232323"/>
<path d="M145.758 38L144.02 32.577C145.344 32.3413 146.447 32.0793 147.33 31.7911C148.24 31.5291 148.984 31.1624 149.564 30.6908C150.143 30.2192 150.598 29.6036 150.929 28.8438L151.963 26.5646L151.797 29.1975L142.614 9.11686H150.391L155.769 22.3599H154.404L159.947 9.11686H167.227L157.796 29.5119C157.051 31.11 156.251 32.4199 155.396 33.4416C154.569 34.4633 153.659 35.2754 152.666 35.878C151.701 36.4805 150.639 36.9259 149.481 37.2141C148.35 37.5284 147.109 37.7904 145.758 38Z" fill="#232323"/>
<path d="M166.347 29.0796V21.9276H174V29.0796H166.347Z" fill="#232323"/>
</svg>
